<svg width="16" height="16" viewBox="0 0 16 16" fill="none" xmlns="http://www.w3.org/2000/svg">
<path d="M12.6667 1.99999H9.88C9.6 1.22666 8.86667 0.666656 8 0.666656C7.13333 0.666656 6.4 1.22666 6.12 1.99999H3.33333C2.6 1.99999 2 2.59999 2 3.33332V12.6667C2 13.4 2.6 14 3.33333 14H12.6667C13.4 14 14 13.4 14 12.6667V3.33332C14 2.59999 13.4 1.99999 12.6667 1.99999ZM8 1.99999C8.36667 1.99999 8.66667 2.29999 8.66667 2.66666C8.66667 3.03332 8.36667 3.33332 8 3.33332C7.63333 3.33332 7.33333 3.03332 7.33333 2.66666C7.33333 2.29999 7.63333 1.99999 8 1.99999ZM9.33333 11.3333H4.66667V9.99999H9.33333V11.3333ZM11.3333 8.66666H4.66667V7.33332H11.3333V8.66666ZM11.3333 5.99999H4.66667V4.66666H11.3333V5.99999Z" fill="#323232"/>
</svg>
